<?xml version="1.0" encoding="utf-8"?>
<!-- Generator: Adobe Illustrator 24.0.2, SVG Export Plug-In . SVG Version: 6.00 Build 0)  -->
<svg version="1.1" id="Layer_1" xmlns="http://www.w3.org/2000/svg" xmlns:xlink="http://www.w3.org/1999/xlink" x="0px" y="0px"
	 viewBox="0 0 1894 456.68" style="enable-background:new 0 0 1894 456.68;" xml:space="preserve">
<style type="text/css">
	.st0{fill:#0000FF;}
	.st1{fill:#FFFFFF;}
</style>
<g>
	<g>
		<path class="st0" d="M348.85,456.68H107.83C48.28,456.68,0,408.41,0,348.85V107.83C0,48.28,48.28,0,107.83,0h241.02
			c59.55,0,107.83,48.28,107.83,107.83v241.02C456.68,408.41,408.41,456.68,348.85,456.68z"/>
		<g>
			<path class="st1" d="M172.42,187.52c6.78-8.95,15.31-16.08,25.61-21.39c10.29-5.3,21.51-7.96,33.66-7.96
				c14.19,0,27.17,3.45,38.94,10.36c11.76,6.9,21.03,16.05,27.81,27.43c6.78-11.38,16.01-20.52,27.71-27.43
				c11.7-6.9,24.58-10.36,38.65-10.36c14.45,0,27.55,3.49,39.32,10.45c11.76,6.97,21.13,16.34,28.1,28.1
				c6.97,11.77,10.45,24.87,10.45,39.32v119.3h-32.22V243.72c0-9.46-2.3-18.22-6.9-26.28c-4.6-8.06-10.81-14.51-18.6-19.37
				c-7.8-4.86-16.43-7.29-25.89-7.29c-9.46,0-18.09,2.27-25.89,6.81c-7.8,4.54-14,10.81-18.6,18.8c-4.6,7.99-6.9,17.1-6.9,27.33
				v111.63h-32.22V243.72c0-10.23-2.3-19.34-6.9-27.33c-4.6-7.99-10.84-14.26-18.7-18.8c-7.86-4.54-16.53-6.81-25.99-6.81
				c-9.33,0-17.93,2.43-25.8,7.29c-7.86,4.86-14.1,11.32-18.7,19.37c-4.6,8.06-6.9,16.82-6.9,26.28v111.63H140.2V187.58"/>
			<path d="M563.29,360.33c-17.65,0-33.73-4.54-48.24-13.62c-14.51-9.08-26.08-21.26-34.72-36.54
				c-8.63-15.28-12.95-32.19-12.95-50.73c0-14.07,2.49-27.2,7.48-39.42c4.99-12.21,11.86-22.95,20.62-32.22
				c8.76-9.27,18.96-16.52,30.59-21.77c11.63-5.24,24.04-7.86,37.21-7.86c14.45,0,27.72,2.91,39.8,8.73
				c12.08,5.82,22.44,13.91,31.07,24.26c8.63,10.36,15.09,22.38,19.37,36.06c4.28,13.68,5.85,28.32,4.7,43.92H501.73
				c1.53,10.87,5.11,20.56,10.74,29.06c5.62,8.5,12.82,15.25,21.58,20.24c8.76,4.99,18.51,7.55,29.25,7.67
				c11.51,0,21.93-2.97,31.26-8.92c9.33-5.95,16.88-14.1,22.63-24.45l32.8,7.67c-7.67,17.01-19.25,30.91-34.71,41.72
				C599.8,354.93,582.47,360.33,563.29,360.33z M500.77,245.83h125.05c-1.02-10.74-4.48-20.55-10.36-29.44
				c-5.88-8.89-13.36-16.02-22.44-21.39c-9.08-5.37-18.99-8.06-29.73-8.06c-10.74,0-20.59,2.62-29.54,7.86
				c-8.95,5.24-16.34,12.31-22.15,21.19C505.79,224.89,502.17,234.83,500.77,245.83z"/>
			<path d="M843.89,67.64h32.22v287.7h-32.22v-32.61c-6.52,11.25-15.28,20.33-26.28,27.24c-11,6.9-23.91,10.36-38.74,10.36
				c-13.94,0-26.98-2.62-39.13-7.86c-12.15-5.24-22.86-12.5-32.13-21.77c-9.27-9.27-16.53-19.98-21.77-32.13
				c-5.24-12.14-7.86-25.19-7.86-39.13c0-13.94,2.62-27.01,7.86-39.22c5.24-12.21,12.5-22.95,21.77-32.22
				c9.27-9.27,19.98-16.52,32.13-21.77c12.15-5.24,25.19-7.86,39.13-7.86c14.83,0,27.74,3.45,38.74,10.36
				c11,6.9,19.76,15.98,26.28,27.23V67.64z M779.26,329.07c12.66,0,23.62-3.1,32.89-9.3c9.27-6.2,16.43-14.61,21.48-25.22
				c5.05-10.61,7.58-22.31,7.58-35.1c0-13.04-2.56-24.84-7.67-35.39c-5.12-10.55-12.31-18.92-21.58-25.13
				c-9.27-6.2-20.17-9.3-32.7-9.3c-12.66,0-24.14,3.13-34.43,9.4c-10.29,6.27-18.51,14.67-24.65,25.22
				c-6.14,10.55-9.21,22.28-9.21,35.2c0,12.92,3.13,24.65,9.4,35.2c6.26,10.55,14.58,18.92,24.93,25.12
				C755.67,325.97,766.98,329.07,779.26,329.07z"/>
			<path d="M938.64,132.28c-5.12,0-9.4-1.66-12.85-4.99c-3.45-3.32-5.18-7.48-5.18-12.47c0-4.99,1.73-9.14,5.18-12.47
				c3.45-3.32,7.67-4.99,12.66-4.99s9.21,1.66,12.66,4.99c3.45,3.33,5.18,7.48,5.18,12.47c0,4.99-1.7,9.14-5.08,12.47
				C947.81,130.62,943.63,132.28,938.64,132.28z M922.15,163.54h32.22v191.8h-32.22V163.54z"/>
			<path d="M1082.3,360.33c-17.64,0-33.73-4.54-48.24-13.62c-14.51-9.08-26.08-21.26-34.72-36.54
				c-8.63-15.28-12.95-32.19-12.95-50.73c0-14.07,2.49-27.2,7.48-39.42c4.99-12.21,11.86-22.95,20.62-32.22
				c8.76-9.27,18.96-16.52,30.59-21.77c11.63-5.24,24.04-7.86,37.21-7.86c17.65,0,33.72,4.54,48.24,13.62
				c14.51,9.08,26.08,21.29,34.71,36.63c8.63,15.34,12.95,32.35,12.95,51.02c0,13.94-2.49,26.98-7.48,39.13
				c-4.99,12.15-11.86,22.86-20.62,32.13c-8.76,9.27-18.93,16.53-30.5,21.77C1108.03,357.71,1095.6,360.33,1082.3,360.33z
				 M1082.3,328.11c12.02,0,22.85-3.16,32.51-9.49c9.65-6.33,17.26-14.7,22.82-25.13c5.56-10.42,8.34-21.77,8.34-34.04
				c0-12.53-2.85-24.04-8.54-34.52c-5.69-10.48-13.33-18.86-22.92-25.13c-9.59-6.26-20.33-9.4-32.22-9.4
				c-12.02,0-22.82,3.16-32.41,9.49c-9.59,6.33-17.2,14.74-22.82,25.22c-5.63,10.49-8.44,21.93-8.44,34.33
				c0,12.79,2.88,24.39,8.63,34.81c5.75,10.42,13.49,18.67,23.21,24.74C1060.18,325.07,1070.79,328.11,1082.3,328.11z"/>
			<path d="M1208.32,355.34V67.64h32.22v287.7H1208.32z"/>
			<path d="M1439.05,163.54h32.22v191.8h-32.22l-1.34-32.41c-6.01,11.12-14.29,20.14-24.84,27.04
				c-10.55,6.9-23.11,10.36-37.69,10.36c-14.07,0-27.24-2.65-39.51-7.96c-12.28-5.3-23.11-12.66-32.51-22.06
				c-9.4-9.4-16.72-20.24-21.96-32.51c-5.24-12.28-7.86-25.51-7.86-39.7c0-13.68,2.56-26.59,7.67-38.74
				c5.11-12.15,12.24-22.79,21.39-31.93c9.14-9.14,19.72-16.3,31.74-21.48c12.02-5.18,24.93-7.77,38.74-7.77
				c15.09,0,28.32,3.55,39.7,10.64c11.38,7.1,20.59,16.27,27.62,27.52L1439.05,163.54z M1374.61,329.07c12.66,0,23.62-3.1,32.89-9.3
				c9.27-6.2,16.43-14.61,21.48-25.22c5.05-10.61,7.58-22.31,7.58-35.1c0-13.04-2.56-24.84-7.67-35.39
				c-5.12-10.55-12.31-18.92-21.58-25.13c-9.27-6.2-20.17-9.3-32.7-9.3c-12.66,0-24.17,3.13-34.52,9.4
				c-10.36,6.27-18.58,14.67-24.65,25.22c-6.07,10.55-9.11,22.28-9.11,35.2c0,12.92,3.13,24.65,9.4,35.2
				c6.26,10.55,14.58,18.92,24.94,25.12C1351.02,325.97,1362.33,329.07,1374.61,329.07z"/>
			<path d="M1679.19,236.04v119.3h-32.22v-112.2c0-9.72-2.37-18.54-7.1-26.47c-4.73-7.93-11.06-14.22-18.99-18.89
				c-7.93-4.67-16.75-7-26.47-7c-9.59,0-18.38,2.33-26.37,7c-7.99,4.67-14.35,10.97-19.08,18.89c-4.73,7.93-7.1,16.75-7.1,26.47
				v112.2h-32.22v-191.8h32.22v23.97c6.78-8.95,15.34-16.08,25.7-21.39c10.36-5.3,21.61-7.96,33.76-7.96
				c14.32,0,27.39,3.49,39.22,10.45c11.82,6.97,21.22,16.34,28.19,28.1C1675.7,208.49,1679.19,221.6,1679.19,236.04z"/>
			<path d="M1798.1,360.33c-17.64,0-33.73-4.54-48.24-13.62c-14.51-9.08-26.08-21.26-34.72-36.54
				c-8.63-15.28-12.95-32.19-12.95-50.73c0-14.07,2.49-27.2,7.48-39.42c4.99-12.21,11.86-22.95,20.62-32.22
				c8.76-9.27,18.95-16.52,30.59-21.77c11.64-5.24,24.04-7.86,37.21-7.86c17.65,0,33.72,4.54,48.24,13.62
				c14.51,9.08,26.09,21.29,34.72,36.63c8.63,15.34,12.95,32.35,12.95,51.02c0,13.94-2.49,26.98-7.48,39.13
				c-4.99,12.15-11.86,22.86-20.62,32.13c-8.76,9.27-18.93,16.53-30.5,21.77C1823.83,357.71,1811.4,360.33,1798.1,360.33z
				 M1798.1,328.11c12.02,0,22.85-3.16,32.51-9.49c9.65-6.33,17.26-14.7,22.82-25.13c5.56-10.42,8.34-21.77,8.34-34.04
				c0-12.53-2.85-24.04-8.53-34.52c-5.69-10.48-13.33-18.86-22.92-25.13c-9.59-6.26-20.33-9.4-32.22-9.4
				c-12.02,0-22.82,3.16-32.41,9.49c-9.59,6.33-17.2,14.74-22.82,25.22c-5.63,10.49-8.44,21.93-8.44,34.33
				c0,12.79,2.88,24.39,8.63,34.81c5.75,10.42,13.49,18.67,23.21,24.74C1775.98,325.07,1786.59,328.11,1798.1,328.11z"/>
		</g>
	</g>
</g>
<g>
	<path class="st0" d="M599.11,1376.25H458.73c-34.68,0-62.8-28.12-62.8-62.8v-140.37c0-34.68,28.12-62.8,62.8-62.8h140.37
		c34.68,0,62.8,28.12,62.8,62.8v140.37C661.91,1348.13,633.79,1376.25,599.11,1376.25z"/>
	<text transform="matrix(1 0 0 1 473.1806 1317.2249)"><tspan x="0" y="0" class="st1" style="font-family:'UrbanistRoman-Medium'; font-size:223.4104px;">m</tspan><tspan x="186.32" y="0" style="font-family:'UrbanistRoman-Medium'; font-size:223.4104px;">ediolano</tspan></text>
</g>
</svg>
